<mxfile host="app.diagrams.net" modified="2021-06-05T03:42:15.206Z" agent="5.0 (Macintosh; Intel Mac OS X 10_15_7) AppleWebKit/537.36 (KHTML, like Gecko) Chrome/91.0.4472.77 Safari/537.36" etag="VGYxZBfH9hNfE2Ldx2y0" version="14.7.6" type="github">
  <diagram id="KoOCsL7IerZmDVaIZsQJ" name="Page-1">
    <mxGraphModel dx="1298" dy="777" grid="1" gridSize="10" guides="1" tooltips="1" connect="1" arrows="1" fold="1" page="1" pageScale="1" pageWidth="827" pageHeight="1169" math="0" shadow="0">
      <root>
        <mxCell id="0" />
        <mxCell id="1" parent="0" />
        <mxCell id="SIA6TbX_IePgMJy5oAV3-4" value=": Team View" style="shape=umlLifeline;perimeter=lifelinePerimeter;whiteSpace=wrap;html=1;container=1;collapsible=0;recursiveResize=0;outlineConnect=0;" parent="1" vertex="1">
          <mxGeometry x="200" y="100" width="120" height="590" as="geometry" />
        </mxCell>
        <mxCell id="SIA6TbX_IePgMJy5oAV3-5" value="" style="html=1;points=[];perimeter=orthogonalPerimeter;" parent="SIA6TbX_IePgMJy5oAV3-4" vertex="1">
          <mxGeometry x="55" y="100" width="10" height="450" as="geometry" />
        </mxCell>
        <mxCell id="SIA6TbX_IePgMJy5oAV3-6" value=": Team Controller" style="shape=umlLifeline;perimeter=lifelinePerimeter;whiteSpace=wrap;html=1;container=1;collapsible=0;recursiveResize=0;outlineConnect=0;" parent="1" vertex="1">
          <mxGeometry x="370" y="100" width="120" height="590" as="geometry" />
        </mxCell>
        <mxCell id="SIA6TbX_IePgMJy5oAV3-10" value=": Team Member Data" style="shape=umlLifeline;perimeter=lifelinePerimeter;whiteSpace=wrap;html=1;container=1;collapsible=0;recursiveResize=0;outlineConnect=0;" parent="1" vertex="1">
          <mxGeometry x="730" y="100" width="120" height="590" as="geometry" />
        </mxCell>
        <mxCell id="SIA6TbX_IePgMJy5oAV3-12" value=": DB Handler" style="shape=umlLifeline;perimeter=lifelinePerimeter;whiteSpace=wrap;html=1;container=1;collapsible=0;recursiveResize=0;outlineConnect=0;" parent="1" vertex="1">
          <mxGeometry x="540" y="100" width="120" height="590" as="geometry" />
        </mxCell>
        <mxCell id="SIA6TbX_IePgMJy5oAV3-13" value="" style="shape=umlLifeline;participant=umlActor;perimeter=lifelinePerimeter;whiteSpace=wrap;html=1;container=1;collapsible=0;recursiveResize=0;verticalAlign=top;spacingTop=36;outlineConnect=0;size=70;" parent="1" vertex="1">
          <mxGeometry x="90" y="60" width="40" height="630" as="geometry" />
        </mxCell>
        <mxCell id="SIA6TbX_IePgMJy5oAV3-14" value="" style="html=1;points=[];perimeter=orthogonalPerimeter;" parent="SIA6TbX_IePgMJy5oAV3-13" vertex="1">
          <mxGeometry x="15" y="120" width="10" height="470" as="geometry" />
        </mxCell>
        <mxCell id="SIA6TbX_IePgMJy5oAV3-15" value="Team&lt;br&gt;Owner" style="text;html=1;strokeColor=none;fillColor=none;align=center;verticalAlign=middle;whiteSpace=wrap;rounded=0;" parent="SIA6TbX_IePgMJy5oAV3-13" vertex="1">
          <mxGeometry y="60" width="40" height="20" as="geometry" />
        </mxCell>
        <mxCell id="SIA6TbX_IePgMJy5oAV3-16" value="select&lt;br&gt;Manage Team Btn&lt;br&gt;&lt;div&gt;&lt;/div&gt;" style="html=1;verticalAlign=bottom;endArrow=block;rounded=0;edgeStyle=orthogonalEdgeStyle;endFill=1;align=center;" parent="1" source="SIA6TbX_IePgMJy5oAV3-14" target="SIA6TbX_IePgMJy5oAV3-5" edge="1">
          <mxGeometry x="-0.0714" width="80" relative="1" as="geometry">
            <mxPoint x="114.99999999999977" y="243" as="sourcePoint" />
            <mxPoint x="220" y="260" as="targetPoint" />
            <Array as="points">
              <mxPoint x="140" y="220" />
              <mxPoint x="140" y="220" />
            </Array>
            <mxPoint as="offset" />
          </mxGeometry>
        </mxCell>
        <mxCell id="uCHtYthcjUW0IdeamV3n-2" value="" style="edgeStyle=orthogonalEdgeStyle;rounded=0;orthogonalLoop=1;jettySize=auto;html=1;endArrow=block;endFill=1;" parent="1" source="SIA6TbX_IePgMJy5oAV3-28" target="uCHtYthcjUW0IdeamV3n-1" edge="1">
          <mxGeometry relative="1" as="geometry">
            <mxPoint x="570" y="280" as="targetPoint" />
            <Array as="points">
              <mxPoint x="550" y="260" />
              <mxPoint x="550" y="260" />
            </Array>
          </mxGeometry>
        </mxCell>
        <mxCell id="uCHtYthcjUW0IdeamV3n-24" value="accessTeamData&lt;br&gt;(teamid, userid)" style="edgeLabel;html=1;align=center;verticalAlign=middle;resizable=0;points=[];" parent="uCHtYthcjUW0IdeamV3n-2" vertex="1" connectable="0">
          <mxGeometry x="-0.2375" y="-1" relative="1" as="geometry">
            <mxPoint x="14" y="-21" as="offset" />
          </mxGeometry>
        </mxCell>
        <mxCell id="uCHtYthcjUW0IdeamV3n-11" style="edgeStyle=orthogonalEdgeStyle;rounded=0;orthogonalLoop=1;jettySize=auto;html=1;dashed=1;endArrow=open;endFill=0;" parent="1" source="SIA6TbX_IePgMJy5oAV3-28" target="SIA6TbX_IePgMJy5oAV3-5" edge="1">
          <mxGeometry relative="1" as="geometry">
            <Array as="points">
              <mxPoint x="360" y="380" />
              <mxPoint x="360" y="380" />
            </Array>
          </mxGeometry>
        </mxCell>
        <mxCell id="uCHtYthcjUW0IdeamV3n-30" value="show team data" style="edgeLabel;html=1;align=center;verticalAlign=middle;resizable=0;points=[];" parent="uCHtYthcjUW0IdeamV3n-11" vertex="1" connectable="0">
          <mxGeometry x="0.125" y="-2" relative="1" as="geometry">
            <mxPoint x="5" y="-8" as="offset" />
          </mxGeometry>
        </mxCell>
        <mxCell id="uCHtYthcjUW0IdeamV3n-15" style="edgeStyle=orthogonalEdgeStyle;rounded=0;orthogonalLoop=1;jettySize=auto;html=1;endArrow=block;endFill=1;" parent="1" source="SIA6TbX_IePgMJy5oAV3-28" target="uCHtYthcjUW0IdeamV3n-1" edge="1">
          <mxGeometry relative="1" as="geometry">
            <Array as="points">
              <mxPoint x="550" y="480" />
              <mxPoint x="550" y="480" />
            </Array>
          </mxGeometry>
        </mxCell>
        <mxCell id="uCHtYthcjUW0IdeamV3n-34" value="saveTeamData&lt;br&gt;(teamid, memberid, type)" style="edgeLabel;html=1;align=center;verticalAlign=middle;resizable=0;points=[];" parent="uCHtYthcjUW0IdeamV3n-15" vertex="1" connectable="0">
          <mxGeometry y="2" relative="1" as="geometry">
            <mxPoint x="-5" y="-18" as="offset" />
          </mxGeometry>
        </mxCell>
        <mxCell id="uCHtYthcjUW0IdeamV3n-41" style="edgeStyle=orthogonalEdgeStyle;rounded=0;orthogonalLoop=1;jettySize=auto;html=1;dashed=1;endArrow=open;endFill=0;" parent="1" source="SIA6TbX_IePgMJy5oAV3-28" target="SIA6TbX_IePgMJy5oAV3-5" edge="1">
          <mxGeometry relative="1" as="geometry">
            <Array as="points">
              <mxPoint x="340" y="570" />
              <mxPoint x="340" y="570" />
            </Array>
          </mxGeometry>
        </mxCell>
        <mxCell id="uCHtYthcjUW0IdeamV3n-42" value="update team view" style="edgeLabel;html=1;align=center;verticalAlign=middle;resizable=0;points=[];" parent="uCHtYthcjUW0IdeamV3n-41" vertex="1" connectable="0">
          <mxGeometry x="0.0875" y="2" relative="1" as="geometry">
            <mxPoint y="-12" as="offset" />
          </mxGeometry>
        </mxCell>
        <mxCell id="SIA6TbX_IePgMJy5oAV3-28" value="" style="html=1;points=[];perimeter=orthogonalPerimeter;" parent="1" vertex="1">
          <mxGeometry x="425" y="210" width="10" height="380" as="geometry" />
        </mxCell>
        <mxCell id="SIA6TbX_IePgMJy5oAV3-32" value="showTeamData()" style="html=1;verticalAlign=bottom;endArrow=block;endFill=1;" parent="1" edge="1">
          <mxGeometry width="80" relative="1" as="geometry">
            <mxPoint x="265" y="236" as="sourcePoint" />
            <mxPoint x="425" y="236" as="targetPoint" />
            <Array as="points">
              <mxPoint x="290" y="236" />
            </Array>
          </mxGeometry>
        </mxCell>
        <mxCell id="uCHtYthcjUW0IdeamV3n-10" style="edgeStyle=orthogonalEdgeStyle;rounded=0;orthogonalLoop=1;jettySize=auto;html=1;dashed=1;endArrow=open;endFill=0;" parent="1" source="uCHtYthcjUW0IdeamV3n-1" target="SIA6TbX_IePgMJy5oAV3-28" edge="1">
          <mxGeometry relative="1" as="geometry">
            <Array as="points">
              <mxPoint x="510" y="350" />
              <mxPoint x="510" y="350" />
            </Array>
          </mxGeometry>
        </mxCell>
        <mxCell id="uCHtYthcjUW0IdeamV3n-29" value="return team data" style="edgeLabel;html=1;align=center;verticalAlign=middle;resizable=0;points=[];" parent="uCHtYthcjUW0IdeamV3n-10" vertex="1" connectable="0">
          <mxGeometry x="0.0625" y="3" relative="1" as="geometry">
            <mxPoint y="-13" as="offset" />
          </mxGeometry>
        </mxCell>
        <mxCell id="uCHtYthcjUW0IdeamV3n-22" style="edgeStyle=orthogonalEdgeStyle;rounded=0;orthogonalLoop=1;jettySize=auto;html=1;dashed=1;endArrow=open;endFill=0;" parent="1" source="uCHtYthcjUW0IdeamV3n-1" target="SIA6TbX_IePgMJy5oAV3-28" edge="1">
          <mxGeometry relative="1" as="geometry">
            <Array as="points">
              <mxPoint x="470" y="550" />
              <mxPoint x="470" y="550" />
            </Array>
          </mxGeometry>
        </mxCell>
        <mxCell id="uCHtYthcjUW0IdeamV3n-40" value="update team data" style="edgeLabel;html=1;align=center;verticalAlign=middle;resizable=0;points=[];" parent="uCHtYthcjUW0IdeamV3n-22" vertex="1" connectable="0">
          <mxGeometry x="-0.0125" y="-2" relative="1" as="geometry">
            <mxPoint as="offset" />
          </mxGeometry>
        </mxCell>
        <mxCell id="uCHtYthcjUW0IdeamV3n-37" style="edgeStyle=orthogonalEdgeStyle;rounded=0;orthogonalLoop=1;jettySize=auto;html=1;endArrow=open;endFill=0;" parent="1" source="uCHtYthcjUW0IdeamV3n-1" target="uCHtYthcjUW0IdeamV3n-5" edge="1">
          <mxGeometry relative="1" as="geometry">
            <Array as="points">
              <mxPoint x="700" y="500" />
              <mxPoint x="700" y="500" />
            </Array>
          </mxGeometry>
        </mxCell>
        <mxCell id="uCHtYthcjUW0IdeamV3n-45" value="setTeamMember&lt;br&gt;(teamid,memberid,type)" style="edgeLabel;html=1;align=center;verticalAlign=middle;resizable=0;points=[];" parent="uCHtYthcjUW0IdeamV3n-37" vertex="1" connectable="0">
          <mxGeometry x="-0.1667" y="4" relative="1" as="geometry">
            <mxPoint x="20" y="-16" as="offset" />
          </mxGeometry>
        </mxCell>
        <mxCell id="uCHtYthcjUW0IdeamV3n-1" value="" style="html=1;points=[];perimeter=orthogonalPerimeter;" parent="1" vertex="1">
          <mxGeometry x="595" y="230" width="10" height="330" as="geometry" />
        </mxCell>
        <mxCell id="uCHtYthcjUW0IdeamV3n-8" style="edgeStyle=orthogonalEdgeStyle;rounded=0;orthogonalLoop=1;jettySize=auto;html=1;endArrow=open;endFill=0;" parent="1" source="uCHtYthcjUW0IdeamV3n-1" target="uCHtYthcjUW0IdeamV3n-5" edge="1">
          <mxGeometry relative="1" as="geometry">
            <mxPoint x="765" y="290" as="sourcePoint" />
            <Array as="points">
              <mxPoint x="700" y="290" />
              <mxPoint x="700" y="290" />
            </Array>
          </mxGeometry>
        </mxCell>
        <mxCell id="uCHtYthcjUW0IdeamV3n-26" value="getTeamMember()" style="edgeLabel;html=1;align=center;verticalAlign=middle;resizable=0;points=[];" parent="uCHtYthcjUW0IdeamV3n-8" vertex="1" connectable="0">
          <mxGeometry x="-0.1667" y="4" relative="1" as="geometry">
            <mxPoint x="10" y="-6" as="offset" />
          </mxGeometry>
        </mxCell>
        <mxCell id="uCHtYthcjUW0IdeamV3n-9" style="edgeStyle=orthogonalEdgeStyle;rounded=0;orthogonalLoop=1;jettySize=auto;html=1;dashed=1;endArrow=open;endFill=0;" parent="1" source="uCHtYthcjUW0IdeamV3n-5" target="uCHtYthcjUW0IdeamV3n-1" edge="1">
          <mxGeometry relative="1" as="geometry">
            <mxPoint x="765" y="310" as="targetPoint" />
            <Array as="points">
              <mxPoint x="730" y="310" />
              <mxPoint x="730" y="310" />
            </Array>
          </mxGeometry>
        </mxCell>
        <mxCell id="uCHtYthcjUW0IdeamV3n-27" value="return team member list" style="edgeLabel;html=1;align=center;verticalAlign=middle;resizable=0;points=[];" parent="uCHtYthcjUW0IdeamV3n-9" vertex="1" connectable="0">
          <mxGeometry x="-0.0222" relative="1" as="geometry">
            <mxPoint x="-7" y="10" as="offset" />
          </mxGeometry>
        </mxCell>
        <mxCell id="uCHtYthcjUW0IdeamV3n-39" value="update team member" style="edgeStyle=orthogonalEdgeStyle;rounded=0;orthogonalLoop=1;jettySize=auto;html=1;dashed=1;endArrow=open;endFill=0;" parent="1" source="uCHtYthcjUW0IdeamV3n-5" target="uCHtYthcjUW0IdeamV3n-1" edge="1">
          <mxGeometry x="0.0882" relative="1" as="geometry">
            <Array as="points">
              <mxPoint x="740" y="530" />
              <mxPoint x="740" y="530" />
            </Array>
            <mxPoint as="offset" />
          </mxGeometry>
        </mxCell>
        <mxCell id="uCHtYthcjUW0IdeamV3n-5" value="" style="html=1;points=[];perimeter=orthogonalPerimeter;" parent="1" vertex="1">
          <mxGeometry x="785" y="280" width="10" height="270" as="geometry" />
        </mxCell>
        <mxCell id="uCHtYthcjUW0IdeamV3n-12" style="edgeStyle=orthogonalEdgeStyle;rounded=0;orthogonalLoop=1;jettySize=auto;html=1;dashed=1;endArrow=open;endFill=0;" parent="1" source="SIA6TbX_IePgMJy5oAV3-5" target="SIA6TbX_IePgMJy5oAV3-14" edge="1">
          <mxGeometry relative="1" as="geometry">
            <Array as="points">
              <mxPoint x="170" y="400" />
              <mxPoint x="170" y="400" />
            </Array>
          </mxGeometry>
        </mxCell>
        <mxCell id="uCHtYthcjUW0IdeamV3n-31" value="update team view" style="edgeLabel;html=1;align=center;verticalAlign=middle;resizable=0;points=[];" parent="uCHtYthcjUW0IdeamV3n-12" vertex="1" connectable="0">
          <mxGeometry x="0.1857" y="-4" relative="1" as="geometry">
            <mxPoint x="8" y="-6" as="offset" />
          </mxGeometry>
        </mxCell>
        <mxCell id="uCHtYthcjUW0IdeamV3n-13" style="edgeStyle=orthogonalEdgeStyle;rounded=0;orthogonalLoop=1;jettySize=auto;html=1;endArrow=block;endFill=1;" parent="1" source="SIA6TbX_IePgMJy5oAV3-14" target="SIA6TbX_IePgMJy5oAV3-5" edge="1">
          <mxGeometry relative="1" as="geometry">
            <Array as="points">
              <mxPoint x="210" y="450" />
              <mxPoint x="210" y="450" />
            </Array>
          </mxGeometry>
        </mxCell>
        <mxCell id="uCHtYthcjUW0IdeamV3n-32" value="select UI&lt;br&gt;to Change Team Data" style="edgeLabel;html=1;align=center;verticalAlign=middle;resizable=0;points=[];" parent="uCHtYthcjUW0IdeamV3n-13" vertex="1" connectable="0">
          <mxGeometry x="-0.1429" relative="1" as="geometry">
            <mxPoint x="5" as="offset" />
          </mxGeometry>
        </mxCell>
        <mxCell id="uCHtYthcjUW0IdeamV3n-14" style="edgeStyle=orthogonalEdgeStyle;rounded=0;orthogonalLoop=1;jettySize=auto;html=1;endArrow=block;endFill=1;" parent="1" source="SIA6TbX_IePgMJy5oAV3-5" target="SIA6TbX_IePgMJy5oAV3-28" edge="1">
          <mxGeometry relative="1" as="geometry">
            <mxPoint x="360" y="480" as="targetPoint" />
            <Array as="points">
              <mxPoint x="340" y="460" />
              <mxPoint x="340" y="460" />
            </Array>
          </mxGeometry>
        </mxCell>
        <mxCell id="uCHtYthcjUW0IdeamV3n-33" value="changeTeamData()" style="edgeLabel;html=1;align=center;verticalAlign=middle;resizable=0;points=[];" parent="uCHtYthcjUW0IdeamV3n-14" vertex="1" connectable="0">
          <mxGeometry x="-0.025" relative="1" as="geometry">
            <mxPoint x="-3" y="-10" as="offset" />
          </mxGeometry>
        </mxCell>
        <mxCell id="uCHtYthcjUW0IdeamV3n-23" value="acknowledge" style="edgeStyle=orthogonalEdgeStyle;rounded=0;orthogonalLoop=1;jettySize=auto;html=1;dashed=1;endArrow=open;endFill=0;" parent="1" source="SIA6TbX_IePgMJy5oAV3-5" target="SIA6TbX_IePgMJy5oAV3-14" edge="1">
          <mxGeometry x="0.0714" relative="1" as="geometry">
            <Array as="points">
              <mxPoint x="190" y="590" />
              <mxPoint x="190" y="590" />
            </Array>
            <mxPoint as="offset" />
          </mxGeometry>
        </mxCell>
      </root>
    </mxGraphModel>
  </diagram>
</mxfile>
